<svg height="512" viewBox="0 0 64 64" width="512" xmlns="http://www.w3.org/2000/svg"><g id="Condiment-3" data-name="Condiment"><path d="m27.78 14.116a2.984 2.984 0 0 0 .22-1.116v-2a3 3 0 0 0 -3-3h-3.133l-.877-6.142a1 1 0 0 0 -.99-.858h-4a1 1 0 0 0 -.99.858l-.877 6.142h-3.133a3 3 0 0 0 -3 3v2a2.984 2.984 0 0 0 .22 1.116 3 3 0 0 0 -2.22 2.884v43a3 3 0 0 0 3 3h18a3 3 0 0 0 3-3v-43a3 3 0 0 0 -2.22-2.884zm-10.913-11.116h2.266l.714 5h-3.694zm-6.867 8a1 1 0 0 1 1-1h14a1 1 0 0 1 1 1v2a1 1 0 0 1 -1 1h-14a1 1 0 0 1 -1-1zm18 49a1 1 0 0 1 -1 1h-18a1 1 0 0 1 -1-1v-43a1 1 0 0 1 1-1h18a1 1 0 0 1 1 1z"/><path d="m25 57h-1a1 1 0 0 0 0 2h1a1 1 0 0 0 0-2z"/><path d="m21 57h-5a1 1 0 0 0 0 2h5a1 1 0 0 0 0-2z"/><path d="m55.78 14.116a2.984 2.984 0 0 0 .22-1.116v-2a3 3 0 0 0 -3-3h-3.133l-.877-6.142a1 1 0 0 0 -.99-.858h-4a1 1 0 0 0 -.99.858l-.877 6.142h-3.133a3 3 0 0 0 -3 3v2a2.984 2.984 0 0 0 .22 1.116 3 3 0 0 0 -2.22 2.884v43a3 3 0 0 0 3 3h18a3 3 0 0 0 3-3v-43a3 3 0 0 0 -2.22-2.884zm-10.913-11.116h2.266l.714 5h-3.694zm-6.867 8a1 1 0 0 1 1-1h14a1 1 0 0 1 1 1v2a1 1 0 0 1 -1 1h-14a1 1 0 0 1 -1-1zm3 5h1v4.5a.5.5 0 0 1 -1 0zm3 4.5v-4.5h1v8.5a.5.5 0 0 1 -1 0zm12 39.5a1 1 0 0 1 -1 1h-18a1 1 0 0 1 -1-1v-43a1 1 0 0 1 1-1h2v4.5a2.5 2.5 0 0 0 3 2.449v1.551a2.5 2.5 0 0 0 5 0v-8.5h8a1 1 0 0 1 1 1z"/><path d="m53 57h-1a1 1 0 0 0 0 2h1a1 1 0 0 0 0-2z"/><path d="m49 57h-5a1 1 0 0 0 0 2h5a1 1 0 0 0 0-2z"/></g></svg>