<?xml version="1.0"?>
<svg xmlns="http://www.w3.org/2000/svg" id="outline" viewBox="0 0 512 512" width="512" height="512"><path d="M492.7998,265.6001l-12.8-9.6001H480V96a56.06353,56.06353,0,0,0-56-56H328a56.07564,56.07564,0,0,0-55.46069,48.32306Q268.31086,88.00272,264,88a111.81172,111.81172,0,0,0-95.75793,53.86182l-6.65857-16.1709a79.44268,79.44268,0,0,0-37.9336-40.81006,70.69027,70.69027,0,0,0-94.84131,31.61377,71.024,71.024,0,0,0-3.34472,55.38965l28.3667,79.42834L19.67383,273.27051A8.00069,8.00069,0,0,0,16,280v24h.01343a7.97667,7.97667,0,0,0,.324,2.29883L57.49609,443.49414A39.75344,39.75344,0,0,0,95.80908,472H416.19092a39.75344,39.75344,0,0,0,38.313-28.50586L495.6626,306.29883a7.97667,7.97667,0,0,0,.324-2.29883H496V272A7.99927,7.99927,0,0,0,492.7998,265.6001ZM480,296H328V284.77863l95.29053-51.31086L480,276Zm-9.95239,40H420a12,12,0,0,1,0-24h57.24756ZM332,416a12,12,0,0,1,0-24h54.707a27.95093,27.95093,0,0,0,0,24Zm-112,0a12,12,0,0,1,0-24h86.707a27.95093,27.95093,0,0,0,0,24Zm-104,0a12,12,0,0,1,0-24h78.707a27.95093,27.95093,0,0,0,0,24ZM34.75244,312H90.707a27.95093,27.95093,0,0,0,0,24H41.95239ZM432,364a12.01375,12.01375,0,0,1-12,12H365.293a27.95093,27.95093,0,0,0,0-24H420A12.01375,12.01375,0,0,1,432,364ZM277.293,376a27.95093,27.95093,0,0,0,0-24H340a12,12,0,0,1,0,24Zm-104,0a27.95093,27.95093,0,0,0,0-24H252a12,12,0,0,1,0,24Zm-88,0a27.95093,27.95093,0,0,0,0-24H148a12,12,0,0,1,0,24ZM394.707,336H316a12,12,0,0,1,0-24h78.707a27.95093,27.95093,0,0,0,0,24Zm-104,0H204a12,12,0,0,1,0-24h86.707a27.95093,27.95093,0,0,0,0,24Zm-112,0H116a12,12,0,0,1,0-24h62.707a27.95093,27.95093,0,0,0,0,24ZM60,352a12,12,0,0,1,0,24H53.95239l-7.2-24Zm-1.24756,40H90.707a27.95093,27.95093,0,0,0,0,24H65.95239ZM400,404a12.01375,12.01375,0,0,1,12-12h41.24756l-7.2,24H412A12.01375,12.01375,0,0,1,400,404Zm45.293-28a27.95093,27.95093,0,0,0,0-24h19.95459l-7.2,24ZM328,56h96a40.04521,40.04521,0,0,1,40,40V244.00024L428.7998,217.6001a8.00272,8.00272,0,0,0-8.59277-.644L366.0354,246.12537A111.94954,111.94954,0,0,0,288.36475,90.677,40.05241,40.05241,0,0,1,328,56Zm-64,48a95.992,95.992,0,0,1,73.88538,157.28308l-18.41883,9.91785L298.188,262.87445,279.31348,244,308,215.31348l22.34326,22.34326,11.31348-11.31348L319.31348,204l22.34326-22.34326-11.31348-11.31348L308,192.68652,279.31348,164l22.34326-22.34326-11.31348-11.31348L268,152.68652l-22.34326-22.34326-11.31348,11.31348L256.68652,164,228,192.68652l-22.34326-22.34326-11.31348,11.31348L216.68652,204l-16.1914,16.19135-24.30249-59.02082A95.85517,95.85517,0,0,1,264,104Zm-7.31348,140-1.8938,1.89374-41.23681-16.13617L228,215.31348Zm-17.373-40L268,175.31348,296.68652,204,268,232.68652ZM47.87073,187.05194l17.78943-21.34735A60.134,60.134,0,0,1,105.44092,144.354a54.428,54.428,0,0,1-13.33447,42.98438L60.62256,222.75775ZM66.75842,239.9386l37.307-41.97034a70.42632,70.42632,0,0,0,15.6958-63.90869A8.00059,8.00059,0,0,0,112,128a76.11753,76.11753,0,0,0-58.63184,27.46143L41.62231,169.55634l-1.09057-3.0539a54.94949,54.94949,0,0,1,2.5874-42.85254,54.6908,54.6908,0,0,1,73.37549-24.45849,63.44564,63.44564,0,0,1,30.29394,32.5913l35.26685,85.64856-43.14038-16.881a7.99477,7.99477,0,0,0-7.24121.72022L67.64819,242.42987Zm70.13123-23.00012L312,285.46045V296H32V284.36768ZM95.80908,456a23.85213,23.85213,0,0,1-22.98779-17.10352L70.75232,432H156a12,12,0,0,1,0,24Zm85.48389,0a27.95093,27.95093,0,0,0,0-24H244a12,12,0,0,1,0,24Zm88,0a27.95093,27.95093,0,0,0,0-24H348a12,12,0,0,1,0,24Zm146.89795,0H373.293a27.95093,27.95093,0,0,0,0-24h67.95471l-2.069,6.89648A23.85213,23.85213,0,0,1,416.19092,456Z"/><rect x="416.00016" y="76.68629" width="15.99967" height="22.62742" transform="translate(61.96133 325.58788) rotate(-45)"/><rect x="391.05573" y="108.00016" width="17.88854" height="15.99968" transform="translate(-9.64765 191.13188) rotate(-26.56505)"/><rect x="388.68629" y="152.00016" width="22.62742" height="15.99967" transform="translate(4.0202 329.70563) rotate(-45)"/><rect x="428.00016" y="127.05573" width="15.99968" height="17.88854" transform="translate(-14.7913 209.34303) rotate(-26.56505)"/><rect x="352.00016" y="84.68629" width="15.99967" height="22.62742" transform="translate(37.55931 282.67619) rotate(-45)"/><rect x="428.00016" y="183.05573" width="15.99968" height="17.88854" transform="translate(-39.83527 215.25511) rotate(-26.56505)"/><rect x="395.05573" y="192.00016" width="17.88854" height="15.99968" transform="translate(44.44027 471.90587) rotate(-63.43495)"/></svg>
