<?xml version="1.0"?>
<svg xmlns="http://www.w3.org/2000/svg" id="Layer_2" data-name="Layer 2" viewBox="0 0 128 128" width="512" height="512"><title>SALAD</title><path d="M114.041,31.095a8.179,8.179,0,0,0,12.583-10.327A8.18,8.18,0,0,0,115.278,9.423,8.178,8.178,0,0,0,104.951,22a7.907,7.907,0,0,0,.628.567l-3.1,3.1-.06-.06a11.75,11.75,0,0,0-17.337.788L72.894,41.05l-7.785-7.783a10.484,10.484,0,0,0-3.478-15.261A10.541,10.541,0,0,0,58.919,7.892,10.423,10.423,0,0,0,48.894,5.15,10.5,10.5,0,0,0,33.679,2.012,10.488,10.488,0,0,0,18.526,5.049,10.483,10.483,0,0,0,5.049,18.526,10.5,10.5,0,0,0,2.013,33.679,10.5,10.5,0,0,0,5.149,48.894,10.42,10.42,0,0,0,7.893,58.919a10.54,10.54,0,0,0,10.113,2.712,10.315,10.315,0,0,0,1.649,2.216H1.75A1.75,1.75,0,0,0,0,65.6v5.659a37.793,37.793,0,0,0,37.75,37.75.618.618,0,0,1,.426,1.066l-3.634,3.447A8.393,8.393,0,0,0,40.319,128H87.681a8.393,8.393,0,0,0,5.776-14.481l-3.632-3.447a.617.617,0,0,1,.425-1.066A37.793,37.793,0,0,0,128,71.256V65.6a1.75,1.75,0,0,0-1.75-1.75h-4.614a17.037,17.037,0,0,0-10.87-13.967,11.724,11.724,0,0,0-.332-16.252l-.061-.061,3.1-3.1A8.254,8.254,0,0,0,114.041,31.095Zm-26.27-2.456a8.25,8.25,0,0,1,12.172-.553L107.96,36.1a8.237,8.237,0,0,1,.867,10.638l-8.111-8.111A1.75,1.75,0,1,0,98.241,41.1l8.077,8.077L95.833,57.919l-8.44-8.44a1.75,1.75,0,1,0-2.475,2.475l8.215,8.215-4.415,3.679H66.373a20.066,20.066,0,0,0-2-7.077l9.989-12.008,0,0,6.819-8.2L86.8,42.178A1.75,1.75,0,0,0,89.271,39.7l-5.843-5.843Zm-50.5,11.277a7.57,7.57,0,0,1,7.352,5.806H40.758a7.569,7.569,0,0,1-7.351-5.806Zm11.26,5.806a7.569,7.569,0,0,1,7.351-5.806h3.864a7.57,7.57,0,0,1-7.352,5.806Zm-3.742,3.606a16.287,16.287,0,0,1,18.06,14.519H30.321A16.482,16.482,0,0,1,44.788,49.328ZM18.942,57.7a1.753,1.753,0,0,0-.727.158A6.984,6.984,0,0,1,8.908,48.7a1.75,1.75,0,0,0-.966-2.33A6.992,6.992,0,0,1,5.549,34.917a1.749,1.749,0,0,0,0-2.475A6.985,6.985,0,0,1,7.992,20.97a1.751,1.751,0,0,0,.881-2.527,6.983,6.983,0,0,1,9.569-9.57,1.751,1.751,0,0,0,2.527-.88A6.989,6.989,0,0,1,32.441,5.548a1.749,1.749,0,0,0,2.475,0A6.99,6.99,0,0,1,46.372,7.943a1.751,1.751,0,0,0,2.33.966,6.952,6.952,0,0,1,7.742,1.458,7.022,7.022,0,0,1,1.409,7.848,1.749,1.749,0,0,0,1.014,2.379A6.986,6.986,0,0,1,61.5,32.131a1.75,1.75,0,0,0,0,2.475l9.148,9.145-8.22,9.882a20.067,20.067,0,0,0-5.9-5.219,11.067,11.067,0,0,0,6.925-10.247,1.75,1.75,0,0,0-1.75-1.75H55.881a11.046,11.046,0,0,0-9.3,5.11,11.12,11.12,0,0,0-1.7-2.059,13.615,13.615,0,0,0,3.48-10.626l-.338-3.164a1.75,1.75,0,0,0-3.48.372l.338,3.164a10.149,10.149,0,0,1-2.908,8.265,10.946,10.946,0,0,0-2.918-.9L28.8,26.33A13.5,13.5,0,0,0,31.43,16.012l-.272-1.7a1.75,1.75,0,0,0-3.457.553l.272,1.7a9.981,9.981,0,0,1-1.679,7.255l-4.307-4.307a1.75,1.75,0,0,0-2.475,2.475l8.54,8.54a12.518,12.518,0,0,1-9.52,2.349l-2.166-.357a1.75,1.75,0,1,0-.568,3.453l2.165.357a15.966,15.966,0,0,0,12.588-3.3l3.39,3.39H31.453a1.75,1.75,0,0,0-1.75,1.75,11.067,11.067,0,0,0,6.929,10.249,19.891,19.891,0,0,0-9.823,15.115,6.943,6.943,0,0,1-6.214-4.663A1.75,1.75,0,0,0,18.942,57.7ZM124.5,71.256a34.288,34.288,0,0,1-34.25,34.25,4.118,4.118,0,0,0-2.834,7.1l3.632,3.446a4.893,4.893,0,0,1-3.367,8.442H40.319a4.893,4.893,0,0,1-3.368-8.442l3.634-3.447a4.118,4.118,0,0,0-2.835-7.1A34.288,34.288,0,0,1,3.5,71.256V67.348h121Zm-6.389-7.409H94.186L107.7,52.591A13.533,13.533,0,0,1,118.111,63.848ZM107.9,31.093l-2.946-2.946,4.7-4.7a1.75,1.75,0,0,0-.605-2.869,4.676,4.676,0,1,1,5-7.666,1.8,1.8,0,0,0,2.475,0,4.677,4.677,0,1,1,6.614,6.614,1.751,1.751,0,0,0,0,2.476,4.677,4.677,0,1,1-7.664,5,1.75,1.75,0,0,0-2.87-.607Z"/><path d="M116.25,73.251H11.75a1.75,1.75,0,0,0,0,3.5h104.5a1.75,1.75,0,0,0,0-3.5Z"/></svg>
