<?xml version="1.0" encoding="iso-8859-1"?>
<!-- Generator: Adobe Illustrator 19.0.0, SVG Export Plug-In . SVG Version: 6.00 Build 0)  -->
<svg version="1.1" id="Capa_1" xmlns="http://www.w3.org/2000/svg" xmlns:xlink="http://www.w3.org/1999/xlink" x="0px" y="0px"
	 viewBox="0 0 511.999 511.999" style="enable-background:new 0 0 511.999 511.999;" xml:space="preserve">
<g>
	<g>
		<path d="M451.412,467.42c-8.025-4.012-17.467-3.161-24.644,2.222L400.29,489.5V103.693C400.29,46.517,353.773,0,296.597,0h-32.064
			C207.356,0,160.84,46.517,160.84,103.693v48.099c0,4.142,3.358,7.5,7.5,7.5c4.142,0,7.5-3.358,7.5-7.5v-48.099
			C175.84,54.787,215.628,15,264.533,15h32.064c48.906,0,88.693,39.788,88.693,88.693v361.242h-16.546c-4.142,0-7.5,3.358-7.5,7.5
			c0,4.142,3.358,7.5,7.5,7.5h16.546V497H158.367c-4.271,0-7.908-3.193-8.46-7.429l-1.257-9.636h188.025c4.142,0,7.5-3.358,7.5-7.5
			c0-4.142-3.358-7.5-7.5-7.5H146.693l-15.17-116.303c-2.66-20.389-8.67-40.052-17.866-58.442L65.21,193.296
			c-4.778-9.556-2.912-21.052,4.643-28.607c4.795-4.795,11.173-7.361,17.951-7.255c6.78,0.117,13.063,2.912,17.69,7.869
			l43.485,46.592c4.378,4.691,11.064,6.202,17.033,3.849c5.969-2.353,9.826-8.019,9.826-14.436v-17.452c0-4.142-3.358-7.5-7.5-7.5
			c-4.142,0-7.5,3.358-7.5,7.5v17.452c0,0.188,0,0.352-0.327,0.48c-0.331,0.13-0.438,0.009-0.567-0.128l-43.485-46.592
			c-7.428-7.958-17.513-12.445-28.398-12.632c-10.849-0.205-21.118,3.948-28.816,11.646c-12.127,12.128-15.122,30.582-7.452,45.921
			l48.447,96.894c8.445,16.891,13.966,34.949,16.408,53.675l18.383,140.939c1.523,11.68,11.555,20.488,23.334,20.488h282.52
			c12.976,0,23.532-10.557,23.532-23.532C464.419,479.497,459.435,471.432,451.412,467.42z M440.887,497H415.29l20.478-15.358
			c2.642-1.981,5.983-2.282,8.936-0.806c2.953,1.477,4.716,4.33,4.716,7.631C449.419,493.172,445.592,497,440.887,497z"/>
	</g>
</g>
<g>
</g>
<g>
</g>
<g>
</g>
<g>
</g>
<g>
</g>
<g>
</g>
<g>
</g>
<g>
</g>
<g>
</g>
<g>
</g>
<g>
</g>
<g>
</g>
<g>
</g>
<g>
</g>
<g>
</g>
</svg>
