<?xml version="1.0" encoding="iso-8859-1"?>
<!-- Generator: Adobe Illustrator 18.0.0, SVG Export Plug-In . SVG Version: 6.00 Build 0)  -->
<!DOCTYPE svg PUBLIC "-//W3C//DTD SVG 1.1//EN" "http://www.w3.org/Graphics/SVG/1.1/DTD/svg11.dtd">
<svg version="1.1" id="Capa_1" xmlns="http://www.w3.org/2000/svg" xmlns:xlink="http://www.w3.org/1999/xlink" x="0px" y="0px"
	 viewBox="0 0 437 437" style="enable-background:new 0 0 437 437;" xml:space="preserve">
<g>
	<path d="M371.798,79.027C330.768,57.407,276.325,45.5,218.5,45.5S106.232,57.407,65.202,79.027C23.155,101.182,0,131.004,0,163
		c0,60.993,22.7,118.346,63.918,161.494c41.277,43.21,96.176,67.006,154.582,67.006s113.305-23.796,154.582-67.006
		C414.3,281.346,437,223.993,437,163C437,131.004,413.844,101.182,371.798,79.027z M69.863,87.874
		C109.482,66.997,162.27,55.5,218.5,55.5s109.017,11.497,148.636,32.374C405.74,108.215,427,134.896,427,163
		c0,14.171-5.412,27.979-15.721,40.796c-1.015-2.167-2.462-4.118-4.261-5.71c1.151-2.354,1.771-4.96,1.771-7.616
		c0-6.123-3.282-11.66-8.258-14.765c0.675-1.87,1.027-3.857,1.027-5.885c0-7.575-4.871-14.033-11.645-16.408
		c0.195-1.047,0.295-2.118,0.295-3.202c0-8.591-6.262-15.747-14.461-17.144c-0.322-9.088-7.661-16.423-16.755-16.745
		c-1.392-8.204-8.55-14.471-17.145-14.471c-0.546,0-1.089,0.026-1.629,0.077c-1.773-7.716-8.7-13.487-16.951-13.487
		c-1.024,0-2.044,0.091-3.046,0.271c-2.876-5.717-8.788-9.561-15.534-9.561c-1.841,0-3.65,0.292-5.37,0.854
		c-2.965-5.436-8.742-9.113-15.27-9.113c-2.332,0-4.61,0.469-6.713,1.35c-3.042-5.143-8.651-8.58-14.967-8.58
		c-2.972,0-5.825,0.744-8.345,2.127c-3.238-3.863-8.095-6.258-13.336-6.258c-4.019,0-7.781,1.35-10.783,3.735
		c-3.17-2.986-7.421-4.765-11.927-4.765c-4.339,0-8.38,1.574-11.486,4.323c-2.911-2.117-6.445-3.293-10.184-3.293
		c-5.241,0-10.097,2.395-13.335,6.258c-2.521-1.383-5.373-2.127-8.345-2.127c-6.315,0-11.925,3.438-14.967,8.581
		c-2.103-0.882-4.382-1.351-6.714-1.351c-6.527,0-12.305,3.677-15.269,9.113c-1.72-0.562-3.53-0.854-5.371-0.854
		c-6.746,0-12.658,3.844-15.534,9.561c-1.002-0.18-2.021-0.271-3.046-0.271c-8.25,0-15.177,5.771-16.95,13.487
		c-0.54-0.051-1.084-0.077-1.63-0.077c-8.595,0-15.753,6.267-17.145,14.471c-9.094,0.323-16.433,7.658-16.755,16.745
		c-8.199,1.396-14.46,8.552-14.46,17.144c0,1.084,0.1,2.155,0.295,3.202c-6.774,2.375-11.646,8.833-11.646,16.408
		c0,2.029,0.353,4.016,1.027,5.886c-4.975,3.105-8.257,8.642-8.257,14.764c0,2.656,0.62,5.261,1.771,7.616
		c-1.798,1.592-3.246,3.543-4.261,5.711C15.412,190.979,10,177.171,10,163C10,134.896,31.26,108.215,69.863,87.874z M34.398,213.244
		c-0.208-0.7-0.318-1.414-0.318-2.134c0-3.06,1.937-5.839,4.819-6.917c1.622-0.606,2.815-2.008,3.153-3.706
		c0.339-1.698-0.226-3.45-1.491-4.632c-1.517-1.417-2.352-3.329-2.352-5.386c0-3.618,2.702-6.755,6.286-7.296
		c1.833-0.276,3.361-1.544,3.974-3.293c0.611-1.749,0.206-3.693-1.055-5.051c-1.274-1.373-1.976-3.152-1.976-5.009
		c0-4.069,3.311-7.38,7.38-7.38c0.318,0,0.622,0.023,0.927,0.05c1.968,0.176,3.837-0.815,4.801-2.528
		c0.964-1.712,0.835-3.831-0.329-5.415c-0.934-1.271-1.428-2.771-1.428-4.338c0-4.075,3.315-7.39,7.39-7.39
		c0.534,0,1.126,0.076,1.76,0.226c1.806,0.426,3.703-0.183,4.922-1.583c1.22-1.401,1.562-3.362,0.889-5.093
		c-0.339-0.873-0.511-1.774-0.511-2.679c0-4.069,3.315-7.38,7.391-7.38c0.899,0,1.805,0.173,2.691,0.515
		c1.739,0.67,3.704,0.319,5.102-0.911c1.398-1.23,1.997-3.135,1.554-4.944c-0.146-0.595-0.217-1.161-0.217-1.73
		c0-4.075,3.315-7.39,7.39-7.39c1.372,0,2.719,0.39,3.896,1.127c1.725,1.081,3.936,1.009,5.586-0.187
		c1.65-1.195,2.411-3.271,1.923-5.249c-0.142-0.574-0.214-1.154-0.214-1.722c0-4.069,3.315-7.38,7.39-7.38
		c1.307,0,2.594,0.353,3.722,1.021c1.461,0.867,3.261,0.931,4.78,0.173s2.55-2.234,2.738-3.922c0.416-3.742,3.571-6.563,7.34-6.563
		c1.822,0,3.578,0.681,4.945,1.917c1.416,1.282,3.442,1.644,5.214,0.934c1.773-0.711,2.987-2.37,3.127-4.275
		c0.281-3.833,3.512-6.836,7.354-6.836c2.134,0,4.163,0.926,5.568,2.542c1.325,1.523,3.437,2.101,5.355,1.461
		c1.917-0.64,3.26-2.37,3.404-4.385c0.275-3.839,3.505-6.847,7.353-6.847c2.291,0,4.42,1.049,5.843,2.879
		c1.154,1.483,3.041,2.199,4.891,1.841c1.847-0.355,3.339-1.716,3.86-3.523c0.906-3.136,3.819-5.327,7.086-5.327
		c2.574,0,4.926,1.326,6.289,3.546c0.954,1.555,2.689,2.462,4.502,2.378c1.822-0.088,3.452-1.162,4.252-2.801
		c1.25-2.562,3.79-4.153,6.627-4.153c3.048,0,5.822,1.92,6.903,4.778c0.706,1.867,2.454,3.135,4.448,3.226
		c2.021,0.102,3.852-1.012,4.725-2.807c1.251-2.571,3.793-4.168,6.634-4.168c3.267,0,6.181,2.191,7.087,5.327
		c0.521,1.807,2.014,3.168,3.86,3.523c1.852,0.358,3.737-0.357,4.891-1.842c1.422-1.829,3.552-2.878,5.843-2.878
		c3.848,0,7.077,3.008,7.353,6.847c0.145,2.015,1.487,3.746,3.404,4.385s4.03,0.063,5.356-1.462
		c1.403-1.614,3.433-2.541,5.566-2.541c3.843,0,7.072,3.002,7.354,6.835c0.14,1.906,1.353,3.565,3.126,4.276
		c1.776,0.711,3.799,0.349,5.214-0.933c1.368-1.237,3.125-1.918,4.946-1.918c3.769,0,6.925,2.822,7.341,6.563
		c0.188,1.688,1.22,3.164,2.739,3.921c1.518,0.758,3.32,0.693,4.779-0.173c1.145-0.678,2.396-1.021,3.721-1.021
		c4.075,0,7.391,3.311,7.391,7.38c0,0.565-0.072,1.145-0.215,1.722c-0.488,1.978,0.272,4.054,1.923,5.249
		c1.651,1.195,3.861,1.269,5.586,0.187c1.177-0.737,2.523-1.127,3.896-1.127c4.074,0,7.39,3.315,7.39,7.39
		c0,0.57-0.071,1.137-0.217,1.735c-0.441,1.809,0.158,3.713,1.557,4.941c1.398,1.229,3.363,1.578,5.101,0.909
		c0.886-0.341,1.791-0.515,2.69-0.515c4.074,0,7.39,3.311,7.39,7.38c0,0.905-0.172,1.807-0.511,2.682
		c-0.672,1.731-0.329,3.691,0.891,5.092c1.219,1.399,3.115,2.008,4.921,1.582c0.634-0.149,1.226-0.226,1.759-0.226
		c4.075,0,7.391,3.315,7.391,7.39c0,1.567-0.494,3.067-1.429,4.338c-1.164,1.583-1.293,3.702-0.329,5.415
		c0.965,1.713,2.838,2.704,4.801,2.528c0.305-0.027,0.608-0.05,0.927-0.05c4.069,0,7.38,3.311,7.38,7.38
		c0,1.857-0.701,3.637-1.976,5.01c-1.26,1.359-1.665,3.303-1.054,5.052c0.612,1.749,2.141,3.016,3.974,3.292
		c3.584,0.541,6.286,3.678,6.286,7.296c0,2.056-0.836,3.969-2.353,5.386c-1.266,1.182-1.83,2.934-1.491,4.632
		c0.338,1.698,1.531,3.1,3.153,3.706c2.883,1.078,4.82,3.857,4.82,6.917c0,0.719-0.11,1.434-0.319,2.134
		c-9.328,8.993-21.21,17.37-35.465,24.882C327.517,259.002,274.73,270.5,218.5,270.5s-109.018-11.498-148.637-32.374
		C55.608,230.614,43.726,222.237,34.398,213.244z M218.5,381.5c-101.425,0-186.153-76.293-204.709-176.99
		c10.992,15.855,28.354,30.314,51.411,42.464c41.03,21.62,95.473,33.527,153.298,33.527s112.268-11.907,153.298-33.527
		c23.058-12.15,40.419-26.609,51.412-42.464C404.653,305.206,319.925,381.5,218.5,381.5z"/>
	<path d="M300.907,191.132c0.616,0.25,1.254,0.369,1.88,0.369c1.975,0,3.846-1.178,4.635-3.12c1.532-3.776,5.852-5.599,9.628-4.065
		c1.452,0.59,2.655,1.612,3.48,2.956c1.028,1.674,2.945,2.589,4.89,2.343c1.949-0.248,3.572-1.613,4.15-3.49
		c0.09-0.294,0.185-0.588,0.305-0.884c1.531-3.77,5.845-5.591,9.614-4.06c1.72,0.699,3.104,2.019,3.898,3.717
		c0.784,1.678,2.433,2.786,4.283,2.877c1.838,0.092,3.6-0.849,4.546-2.441c1.852-3.118,5.775-4.437,9.126-3.079
		c1.904,0.774,3.362,2.268,4.104,4.206c0.986,2.579,3.875,3.871,6.456,2.884c2.579-0.986,3.87-3.877,2.884-6.456
		c-1.717-4.489-5.245-8.097-9.681-9.898c-5.672-2.304-12.037-1.347-16.787,2.094c-0.486-0.437-1.006-0.836-1.54-1.216
		c0.134-0.948,0.221-1.903,0.221-2.868c0-11.304-9.196-20.5-20.5-20.5S306,159.696,306,171c0,1.562,0.188,3.109,0.536,4.616
		c-3.668,1.821-6.72,4.918-8.38,9.002C297.117,187.177,298.349,190.093,300.907,191.132z M326.5,160.5
		c5.67,0,10.293,4.521,10.482,10.145c-2.383-0.038-4.77,0.406-7.032,1.361c-2.448,1.034-4.583,2.579-6.288,4.52
		c-0.895-0.573-1.847-1.067-2.849-1.474c-1.442-0.586-2.918-0.942-4.395-1.126C316.147,172.987,316,172.011,316,171
		C316,165.21,320.71,160.5,326.5,160.5z"/>
	<path d="M174.112,139.23c-0.728,1.049-1.357,2.177-1.85,3.389c-1.039,2.559,0.192,5.475,2.751,6.514
		c0.616,0.25,1.254,0.369,1.88,0.369c1.975,0,3.846-1.178,4.635-3.12c0.742-1.828,2.152-3.257,3.972-4.025
		c1.819-0.769,3.828-0.782,5.655-0.04c1.452,0.59,2.656,1.612,3.481,2.956c1.028,1.674,2.936,2.592,4.896,2.342
		c1.95-0.25,3.573-1.619,4.147-3.499c0.088-0.289,0.18-0.576,0.302-0.874c0.742-1.828,2.15-3.256,3.966-4.022
		c1.813-0.766,3.819-0.78,5.648-0.038c1.72,0.699,3.104,2.019,3.898,3.717c0.784,1.678,2.433,2.786,4.283,2.877
		c1.834,0.093,3.6-0.849,4.546-2.441c1.851-3.118,5.775-4.438,9.126-3.079c1.904,0.773,3.361,2.268,4.104,4.207
		c0.619,1.617,2.03,2.799,3.73,3.124c1.704,0.324,3.449-0.252,4.62-1.527c2.083-2.265,5.389-3.014,8.222-1.863
		c0.834,0.339,1.599,0.827,2.276,1.452c0.475,0.523,1.068,0.954,1.762,1.246c2.545,1.071,5.478-0.122,6.549-2.667
		c0.521-1.237,0.524-2.639,0.007-3.877c-0.14-0.336-0.316-0.653-0.522-0.947c-0.177-0.253-0.377-0.49-0.598-0.708
		c-1.66-1.633-3.581-2.899-5.71-3.764c-4.681-1.901-9.899-1.61-14.288,0.566c-1.575-1.76-3.515-3.173-5.68-4.17
		c0.634-7.269,0.803-22.771-7.404-33.807c-1.648-2.216-4.782-2.677-6.996-1.029c-2.216,1.648-2.677,4.78-1.029,6.996
		c6.029,8.107,5.975,20.388,5.5,26.474c-2.72,0.435-5.324,1.498-7.566,3.123c-1.478-1.33-3.187-2.404-5.065-3.167
		c-7.022-2.852-14.839-0.767-19.585,4.613c-0.896-0.575-1.851-1.07-2.855-1.478c-0.418-0.17-0.843-0.308-1.269-0.445
		c6.543-6.53,12.344-15.826,13.344-25.573c0.789-7.7-1.503-14.722-6.63-20.309c-1.785-1.946-4.775-2.167-6.83-0.505
		c-11.284,9.137-14.193,22.736-14.516,33.176c-6.946-6.315-17.12-12.835-29.535-12.835c-1.349,0-2.714,0.079-4.059,0.235
		c-2.623,0.304-4.558,2.597-4.417,5.234C141.942,129.473,158.184,138.089,174.112,139.23z M195.917,97.947
		c1.049,2.442,1.428,5.14,1.128,8.067c-0.624,6.087-3.982,12.144-8.037,16.917C188.824,115.652,189.901,105.541,195.917,97.947z
		 M174.81,129.261c-9.617-0.682-19.308-4.702-22.634-12.553C161.751,117.736,169.729,124.042,174.81,129.261z"/>
	<path d="M100,207c0,1.712,0.267,3.402,0.753,5.022c-3.318,1.861-6.056,4.806-7.596,8.596c-1.039,2.559,0.192,5.475,2.751,6.514
		c0.616,0.25,1.254,0.369,1.88,0.369c1.975,0,3.846-1.178,4.635-3.12c1.532-3.776,5.853-5.598,9.628-4.065
		c1.452,0.59,2.655,1.612,3.48,2.956c1.028,1.674,2.943,2.59,4.89,2.343c1.949-0.248,3.572-1.613,4.15-3.49
		c0.09-0.294,0.185-0.588,0.305-0.884c1.531-3.77,5.845-5.591,9.614-4.06c1.72,0.699,3.104,2.019,3.898,3.717
		c1.169,2.502,4.146,3.582,6.646,2.413c2.502-1.169,3.582-4.145,2.412-6.647c-1.644-3.519-4.38-6.348-7.792-8.1
		c1.624-5.807,6.602-18.301,14.643-21.394c2.577-0.991,3.863-3.884,2.872-6.461c-0.991-2.578-3.885-3.862-6.462-2.872
		c-9.225,3.548-14.902,13.21-18.007,20.526c-3.015-5.285-8.693-8.863-15.201-8.863C107.851,189.5,100,197.351,100,207z M125,207
		c0,0.348-0.032,0.693-0.079,1.036c-2.367,1.006-4.516,2.527-6.252,4.495c-0.896-0.576-1.851-1.071-2.855-1.479
		c-1.719-0.698-3.487-1.094-5.245-1.224C110.207,208.942,110,207.994,110,207c0-4.136,3.364-7.5,7.5-7.5S125,202.864,125,207z"/>
	<path d="M211,178.5c0-8.271-6.729-15-15-15s-15,6.729-15,15s6.729,15,15,15S211,186.771,211,178.5z M196,183.5
		c-2.757,0-5-2.243-5-5s2.243-5,5-5s5,2.243,5,5S198.757,183.5,196,183.5z"/>
	<path d="M254,226.5c0,8.271,6.729,15,15,15s15-6.729,15-15s-6.729-15-15-15S254,218.229,254,226.5z M269,221.5c2.757,0,5,2.243,5,5
		s-2.243,5-5,5s-5-2.243-5-5S266.243,221.5,269,221.5z"/>
	<path d="M231.287,234.675c-5.764,4.842-18.608,6.577-23.07,6.837c-2.756,0.158-4.862,2.519-4.706,5.274
		c0.15,2.661,2.355,4.717,4.987,4.717c0.096,0,0.191-0.002,0.287-0.008c1.979-0.112,19.597-1.321,28.934-9.164
		c2.114-1.776,2.389-4.93,0.612-7.044C236.557,233.173,233.4,232.898,231.287,234.675z"/>
	<path d="M112.381,173.502c0.042,0.001,0.083,0.001,0.124,0.001c2.705,0,4.931-2.159,4.996-4.878
		c0.067-2.761-2.115-5.053-4.876-5.121c-10.848-0.265-18.879-11.658-19.001-11.832c-1.559-2.271-4.663-2.854-6.94-1.298
		c-2.281,1.557-2.867,4.668-1.31,6.949C85.814,157.968,96.337,173.11,112.381,173.502z"/>
</g>
<g>
</g>
<g>
</g>
<g>
</g>
<g>
</g>
<g>
</g>
<g>
</g>
<g>
</g>
<g>
</g>
<g>
</g>
<g>
</g>
<g>
</g>
<g>
</g>
<g>
</g>
<g>
</g>
<g>
</g>
</svg>
