<svg height="512" viewBox="0 0 60 52" width="512" xmlns="http://www.w3.org/2000/svg"><g id="023---Soy-Sauce"><path id="Shape" d="m30 0c-16.542 0-30 8.523-30 19 .02096914.9177353.12844502 1.8314476.321 2.729.927 5.592 4.479 18.337 17.679 23.271v4c-.00005.3342785.1669303.6464754.445.832.133.088 3.347 2.168 11.555 2.168s11.422-2.08 11.555-2.168c.2780697-.1855246.44505-.4977215.445-.832v-4c13.207-4.931 16.754-17.682 17.68-23.271.1893212-.8980611.2964306-1.811503.32-2.729 0-10.477-13.458-19-30-19zm10 48.4c-4.657 2.142-15.326 2.15-20 0v-2.74c6.5456993 1.7960505 13.4543007 1.7960505 20 0zm.731-5.032c-6.971443 2.1887962-14.44572 2.1919368-21.419.009-6.9439075-2.3562928-12.46327569-7.7053373-15.036-14.572 11.555 12.263 39.94 12.255 51.471-.022-2.194 5.448-6.447 11.901-15.016 14.581zm16.6-20.706c-2.815 7.727-14.31 13.338-27.331 13.338s-24.516-5.611-27.333-13.349c-.43168514-1.1744995-.6573331-2.4147176-.667-3.666-.185-9.365 12.569-16.985 28-16.985s28.178 7.62 28 16.986c-.0089523 1.2534797-.2353089 2.4959032-.669 3.672z"/><path id="Shape" d="m30 4c-15.552 0-28.954 8.565-25.451 17.974 2.496 6.856 13.437 12.026 25.451 12.026s22.959-5.182 25.458-12.046c.3558577-.9443336.5394315-1.9448449.542-2.954 0-8.131-11.907-15-26-15zm0 2c9.632 0 18.37 3.448 22.1 8.11-11.768-8.145-32.4-8.158-44.192 0 3.722-4.662 12.46-8.11 22.092-8.11zm23.582 15.263c-2.229 6.121-12.367 10.737-23.582 10.737s-21.349-4.6-23.574-10.717c-.37216092-.9638225-.50196119-2.004285-.378-3.03 10.884-10.948 36.945-11.024 47.9 0 .1248707 1.0181676-.0007681 2.0514263-.366 3.01z"/><path id="Shape" d="m12 21c0 .5522847.4477153 1 1 1s1-.4477153 1-1c0-3.38 6.429-7 16-7 .5522847 0 1-.4477153 1-1s-.4477153-1-1-1c-10.093 0-18 3.953-18 9z"/><path id="Shape" d="m29 29c0 .5522847.4477153 1 1 1 10.093 0 18-3.953 18-9 0-.5522847-.4477153-1-1-1s-1 .4477153-1 1c0 3.38-6.429 7-16 7-.5522847 0-1 .4477153-1 1z"/><path id="Shape" d="m31 24c0-.5522847-.4477153-1-1-1-3.722 0-6-1.3-6-2 0-.5522847-.4477153-1-1-1s-1 .4477153-1 1c0 2.626 4.024 4 8 4 .5522847 0 1-.4477153 1-1z"/><path id="Shape" d="m29 18c0 .5522847.4477153 1 1 1 3.722 0 6 1.3 6 2 0 .5522847.4477153 1 1 1s1-.4477153 1-1c0-2.626-4.024-4-8-4-.5522847 0-1 .4477153-1 1z"/></g></svg>