<?xml version="1.0" encoding="iso-8859-1"?>
<!-- Generator: Adobe Illustrator 19.0.0, SVG Export Plug-In . SVG Version: 6.00 Build 0)  -->
<svg version="1.1" id="Capa_1" xmlns="http://www.w3.org/2000/svg" xmlns:xlink="http://www.w3.org/1999/xlink" x="0px" y="0px"
	 viewBox="0 0 480 480" style="enable-background:new 0 0 480 480;" xml:space="preserve">
<g>
	<g>
		<path d="M469.312,140.592l-45.168-30.112C433.36,107.128,440,98.36,440,88V24c0-13.232-10.768-24-24-24H64
			C50.768,0,40,10.768,40,24v64c0,10.36,6.64,19.128,15.856,22.48l-45.168,30.112C4,145.056,0,152.52,0,160.56V168v256v16
			c0,22.056,17.944,40,40,40h400c22.056,0,40-17.944,40-40v-16V168v-7.44C480,152.52,476,145.056,469.312,140.592z M56,24
			c0-4.416,3.592-8,8-8h352c4.408,0,8,3.584,8,8v64c0,4.416-3.592,8-8,8h-16H80H64c-4.408,0-8-3.584-8-8V24z M19.56,153.904
			L82.424,112h315.16l62.856,41.904c2.072,1.376,3.32,3.632,3.496,6.096H16.072C16.248,157.544,17.488,155.288,19.56,153.904z
			 M464,440c0,13.232-10.768,24-24,24H40c-13.232,0-24-10.768-24-24v-8h448V440z M464,416H16V176h448V416z"/>
	</g>
</g>
<g>
	<g>
		<path d="M248,320c-17.928,0-33.912,4.384-45.424,11.568c-18.376-8.688-41.312-18.08-63.608-27
			c-26.616-10.64-51.376-14.232-74.168-16.528c-0.264-0.024-0.528-0.04-0.8-0.04c-17.648,0-32,14.352-32,32s14.352,32,32,32
			l7.584-0.008c21.056,1.088,42.2,3.728,62.848,7.848c9.76,1.952,32.448,6.288,51.488,9.912C192.736,387.312,217.528,400,248,400
			c35.888,0,64-17.568,64-40S283.888,320,248,320z M189.592,343.464c-2.088,2.944-3.624,6.08-4.544,9.376
			c-0.04,0.152-0.128,0.288-0.168,0.44c-18.056-3.448-38.272-7.312-47.312-9.12C116.16,339.872,94.24,337.144,72,336h-8
			c-8.672,0-16-7.328-16-16c0-8.552,7.128-15.8,15.64-15.992c21.504,2.176,44.792,5.576,69.392,15.424
			c18.736,7.496,39.536,15.968,56.696,23.8C189.672,343.304,189.64,343.384,189.592,343.464z M248,384c-28.288,0-48-12.648-48-24
			c0-1.256,0.288-2.448,0.688-3.6c0.064-0.176,0.096-0.344,0.16-0.52c0.424-1.072,1.008-2.072,1.664-3.024
			c0.144-0.208,0.288-0.408,0.44-0.616c1.536-2.024,3.432-3.76,5.192-5.096c0.04-0.032,0.064-0.072,0.096-0.096
			C216.576,340.76,230.664,336,248,336c28.288,0,48,12.648,48,24S276.288,384,248,384z"/>
	</g>
</g>
<g>
	<g>
		<path d="M387.408,232.24C377.792,208.28,354.144,192,328,192c-26.144,0-49.792,16.28-59.408,40.24
			C256.968,233.896,248,243.92,248,256c0,12.08,8.968,22.104,20.592,23.76C278.208,303.72,301.856,320,328,320
			c26.144,0,49.792-16.28,59.408-40.24C399.032,278.104,408,268.08,408,256C408,243.92,399.032,233.896,387.408,232.24z M384,264
			h-2.352c-3.536,0-6.656,2.328-7.664,5.72C367.968,289.896,349.064,304,328,304c-21.064,0-39.968-14.104-45.984-34.28
			c-1.008-3.392-4.128-5.72-7.664-5.72H272c-4.408,0-8-3.584-8-8c0-4.416,3.592-8,8-8h2.352c3.536,0,6.656-2.328,7.664-5.72
			c4.424-14.848,15.856-26.352,29.96-31.424c0.264,3.192,1.376,6.424,3.424,9.408c4.096,5.976,11.112,10.208,19.232,11.616
			l2.728-15.768c-7.136-1.232-9.536-5.608-9.552-6.432c0.16-0.336,0.952-0.952,1.928-1.544c20.352,0.76,38.4,14.52,44.248,34.136
			c1.008,3.4,4.128,5.728,7.664,5.728H384c4.408,0,8,3.584,8,8C392,260.416,388.408,264,384,264z"/>
	</g>
</g>
<g>
	<g>
		<rect x="296" y="240" width="16" height="16"/>
	</g>
</g>
<g>
	<g>
		<rect x="344" y="240" width="16" height="16"/>
	</g>
</g>
<g>
	<g>
		<path d="M337.6,267.2c-3.56,4.744-9.352,4.8-9.6,4.8c-5.936,0-9.456-4.6-9.6-4.8l-12.8,9.6c1.4,1.872,9.072,11.2,22.4,11.2
			c2.336,0,14.408-0.536,22.4-11.2L337.6,267.2z"/>
	</g>
</g>
<g>
	<g>
		<rect x="216" y="248" width="16" height="16"/>
	</g>
</g>
<g>
	<g>
		<rect x="184" y="248" width="16" height="16"/>
	</g>
</g>
<g>
	<g>
		<rect x="152" y="248" width="16" height="16"/>
	</g>
</g>
<g>
	<g>
		<rect x="168" y="280" width="16" height="16"/>
	</g>
</g>
<g>
	<g>
		<rect x="200" y="280" width="16" height="16"/>
	</g>
</g>
<g>
	<g>
		<rect x="344" y="336" width="16" height="16"/>
	</g>
</g>
<g>
	<g>
		<rect x="376" y="336" width="16" height="16"/>
	</g>
</g>
<g>
	<g>
		<rect x="392" y="368" width="16" height="16"/>
	</g>
</g>
<g>
	<g>
		<rect x="328" y="368" width="16" height="16"/>
	</g>
</g>
<g>
	<g>
		<rect x="360" y="368" width="16" height="16"/>
	</g>
</g>
<g>
</g>
<g>
</g>
<g>
</g>
<g>
</g>
<g>
</g>
<g>
</g>
<g>
</g>
<g>
</g>
<g>
</g>
<g>
</g>
<g>
</g>
<g>
</g>
<g>
</g>
<g>
</g>
<g>
</g>
</svg>
