<?xml version="1.0" encoding="iso-8859-1"?>
<!-- Generator: Adobe Illustrator 19.0.0, SVG Export Plug-In . SVG Version: 6.00 Build 0)  -->
<svg version="1.1" id="Layer_1" xmlns="http://www.w3.org/2000/svg" xmlns:xlink="http://www.w3.org/1999/xlink" x="0px" y="0px"
	 viewBox="0 0 512 512" style="enable-background:new 0 0 512 512;" xml:space="preserve">
<g>
	<g>
		<path d="M396.07,216.304l-17.321-86.607c-1.133-25.706-49.827-38.71-93.427-42.309c-4.624-7.898-12.343-13.767-21.483-15.935
			v-3.535c0-7.203,5.859-13.061,13.061-13.061V39.184c-15.845,0-28.735,12.891-28.735,28.735v3.535
			c-9.141,2.168-16.859,8.036-21.484,15.935c-43.6,3.599-92.295,16.603-93.427,42.309L91.581,338.055l-0.153,0.762v0.775
			c0,39.025,84.791,60.082,164.571,60.082c15.671,0,31.154-0.759,46.018-2.255l-1.569-15.594C286.104,383.269,271.149,384,256,384
			c-41.043,0-79.522-5.292-108.349-14.901c-24.454-8.152-39.852-19.143-40.526-28.845l37.89-189.45
			c4.419,3.402,10.369,6.775,18.334,9.938v29.953c0,11.523,9.375,20.898,20.898,20.898c5.584,0,10.831-2.173,14.778-6.119
			c3.947-3.945,6.12-9.194,6.12-14.779v-19.352c4.661,0.711,9.459,1.323,14.367,1.833v80.213c0,11.523,9.375,20.898,20.898,20.898
			s20.898-9.375,20.898-20.898v-78.405c15.741-0.227,31.179-1.458,45.369-3.611v50.669c0,11.523,9.375,20.898,20.898,20.898
			s20.898-9.375,20.898-20.898v-61.23c8.054-3.184,14.059-6.583,18.511-10.01l37.89,189.453
			c-0.419,6.024-6.531,12.679-17.331,18.829c-2.917,1.672-6.181,3.294-9.74,4.858c-3.01-12.342-12.78-22.058-25.152-24.992v-3.536
			c0-7.202,5.859-13.061,13.061-13.061v-15.673c-15.845,0-28.735,12.891-28.735,28.735v3.535
			c-14.958,3.548-26.122,17.008-26.122,33.036c0,18.726,15.235,33.959,33.959,33.959c15.608,0,28.781-10.587,32.738-24.954
			c6.665-2.577,12.637-5.359,17.763-8.296c20.873-11.886,25.254-24.56,25.254-33.1v-0.775l-20.891-104.453
			c27.718,10.779,50.897,24.598,67.556,40.363c19.031,18.011,29.09,38.274,29.09,58.596c0,32.128-24.335,62.732-68.52,86.174
			C382.046,443.773,321.03,457.143,256,457.143s-126.046-13.369-171.806-37.647c-44.186-23.442-68.52-54.045-68.52-86.174
			c0-36.565,31.743-71.212,87.089-95.057l-6.201-14.393C35.195,250.31,0,290.202,0,333.322c0,38.207,27.292,73.728,76.848,100.02
			c47.983,25.455,111.607,39.474,179.152,39.474s131.169-14.019,179.152-39.474C484.708,407.05,512,371.529,512,333.322
			C512,285.519,468.76,241.986,396.07,216.304z M256,86.204c10.082,0,18.286,8.203,18.286,18.286s-8.203,18.286-18.286,18.286
			c-10.082,0-18.286-8.203-18.286-18.286S245.918,86.204,256,86.204z M338.074,147.949l-5.274,1.825v72.266
			c0,2.881-2.344,5.224-5.224,5.224c-2.881,0-5.224-2.344-5.224-5.224v-69.397l-9.288,1.75c-17.199,3.24-36.932,4.953-57.063,4.953
			l-10.365-0.01v94.051c0,2.881-2.344,5.224-5.224,5.224c-2.881,0-5.224-2.344-5.224-5.224v-94.573l-7.195-0.59
			c-10.284-0.846-20.118-2.145-29.231-3.862l-9.288-1.751v38.082c0,1.397-0.543,2.709-1.529,3.695
			c-0.986,0.986-2.299,1.53-3.696,1.53c-2.881,0-5.224-2.344-5.224-5.224v-40.975l-5.265-1.83
			c-17.173-5.966-24.859-12.977-24.859-17.277c0-3.545,5.474-9.816,20.902-15.821c13.536-5.269,31.827-9.18,52.264-11.241
			c-0.008,0.313-0.024,0.625-0.024,0.939c0,18.726,15.235,33.959,33.959,33.959s33.959-15.234,33.959-33.959
			c0-0.317-0.016-0.629-0.024-0.944c47.224,4.762,73.168,18.573,73.168,27.066C363.102,134.931,355.364,141.965,338.074,147.949z
			 M344.816,390.269c-10.082,0-18.286-8.204-18.286-18.286c0-10.082,8.203-18.286,18.286-18.286s18.286,8.204,18.286,18.286
			C363.102,382.066,354.899,390.269,344.816,390.269z"/>
	</g>
</g>
<g>
	<g>
		<rect x="177.716" y="306.375" width="15.673" height="15.673"/>
	</g>
</g>
<g>
	<g>
		<rect x="198.614" y="337.721" width="15.673" height="15.674"/>
	</g>
</g>
<g>
	<g>
		<rect x="156.818" y="337.721" width="15.673" height="15.674"/>
	</g>
</g>
<g>
</g>
<g>
</g>
<g>
</g>
<g>
</g>
<g>
</g>
<g>
</g>
<g>
</g>
<g>
</g>
<g>
</g>
<g>
</g>
<g>
</g>
<g>
</g>
<g>
</g>
<g>
</g>
<g>
</g>
</svg>
