<?xml version="1.0" encoding="iso-8859-1"?>
<!-- Generator: Adobe Illustrator 19.0.0, SVG Export Plug-In . SVG Version: 6.00 Build 0)  -->
<svg version="1.1" id="Capa_1" xmlns="http://www.w3.org/2000/svg" xmlns:xlink="http://www.w3.org/1999/xlink" x="0px" y="0px"
	 viewBox="0 0 512 512" style="enable-background:new 0 0 512 512;" xml:space="preserve">
<g>
	<g>
		<path d="M504.471,478.652h-22.588V380.77c0-20.759-16.888-37.647-37.647-37.647h-22.588v-82.824
			c0-20.759-16.888-37.647-37.647-37.647h-22.588v-67.765c0-20.759-16.888-37.647-37.647-37.647H188.235
			c-20.759,0-37.647,16.888-37.647,37.647v67.765H128c-20.759,0-37.647,16.888-37.647,37.647v82.824H67.765
			c-20.759,0-37.647,16.888-37.647,37.647v97.882H7.529c-4.158,0-7.529,3.371-7.529,7.529c0,4.158,3.371,7.529,7.529,7.529h496.941
			c4.158,0,7.529-3.371,7.529-7.529C512,482.023,508.629,478.652,504.471,478.652z M165.647,177.473h24.747
			c4.146,0,7.529-3.373,7.529-7.529c0-4.146-3.383-7.529-7.529-7.529h-24.747v-7.526c0-12.456,10.133-22.588,22.588-22.588h135.529
			c12.456,0,22.588,10.133,22.588,22.588v7.526h-37.647c-1.978,0-3.925,0.803-5.321,2.209c-1.406,1.406-2.209,3.343-2.209,5.321
			c0,2.018-0.783,3.905-2.209,5.331c-1.416,1.416-3.303,2.199-5.321,2.199c-2.018,0-3.905-0.783-5.321-2.199
			c-1.426-1.426-2.209-3.313-2.209-5.331c0-1.978-0.803-3.915-2.209-5.321c-1.395-1.405-3.333-2.209-5.321-2.209h-58.077
			c-4.156,0-7.529,3.383-7.529,7.529c0,4.156,3.373,7.529,7.529,7.529h51.833c3.182,9.015,11.736,15.059,21.303,15.059
			s18.121-6.044,21.303-15.059h31.403v45.179H165.647V177.473z M105.412,282.884h30.118v7.529c0,6.044,2.349,11.716,6.616,15.982
			c4.267,4.257,9.939,6.606,15.972,6.606c12.459,0,22.588-10.13,22.588-22.588v-7.529h76.579
			c3.182,9.015,11.736,15.059,21.303,15.059s18.121-6.044,21.303-15.059h23.873c4.146,0,7.529-3.373,7.529-7.529
			c0-4.146-3.383-7.529-7.529-7.529h-30.118c-1.988,0-3.925,0.803-5.321,2.209c-1.405,1.395-2.209,3.343-2.209,5.321
			c-0.01,4.146-3.383,7.529-7.529,7.529s-7.519-3.383-7.529-7.529c0-1.978-0.803-3.925-2.209-5.321
			c-1.396-1.405-3.333-2.209-5.321-2.209h-90.353c-1.978,0-3.925,0.803-5.321,2.209c-1.406,1.405-2.209,3.343-2.209,5.321v15.059
			c-0.01,4.146-3.383,7.529-7.529,7.529c-4.146,0-7.519-3.383-7.529-7.529v-15.059c0-1.978-0.803-3.915-2.209-5.321
			c-1.395-1.405-3.333-2.209-5.321-2.209h-37.647v-7.526c0-12.456,10.133-22.588,22.588-22.588h256
			c12.456,0,22.588,10.133,22.588,22.588v7.526h-52.706c-4.156,0-7.529,3.383-7.529,7.529c0,4.156,3.373,7.529,7.529,7.529h52.706
			v60.238H105.412V282.884z M466.824,388.296h-37.647c-1.978,0-3.925,0.803-5.321,2.209c-1.405,1.396-2.209,3.343-2.209,5.321
			v15.059c0,2.018-0.783,3.915-2.209,5.331c-1.416,1.416-3.303,2.199-5.321,2.199s-3.905-0.783-5.321-2.199
			c-1.426-1.416-2.209-3.313-2.209-5.331v-15.059c0-1.978-0.803-3.915-2.209-5.321c-1.396-1.405-3.343-2.209-5.321-2.209h-90.353
			c-1.978,0-3.925,0.803-5.321,2.209c-1.406,1.406-2.209,3.343-2.209,5.321v30.118c0,2.018-0.783,3.915-2.209,5.331
			c-1.416,1.416-3.303,2.199-5.321,2.199c-4.146-0.01-7.519-3.383-7.529-7.529v-30.118c0-1.978-0.803-3.925-2.209-5.321
			c-1.395-1.405-3.343-2.209-5.321-2.209H147.366c-4.146,0-7.519,3.383-7.519,7.529c0,4.156,3.373,7.529,7.519,7.529h123.693v22.588
			c0,6.044,2.359,11.716,6.626,15.982c4.257,4.257,9.929,6.606,15.962,6.606s11.706-2.349,15.972-6.616
			c4.267-4.257,6.616-9.929,6.616-15.972v-22.588h75.294v7.529c0,6.044,2.349,11.716,6.616,15.982
			c4.267,4.257,9.939,6.606,15.972,6.606c12.459,0,22.588-10.13,22.588-22.588v-7.529h30.118v75.297H45.176v-75.297h72.072
			c4.156,0,7.529-3.373,7.529-7.529c0-4.146-3.373-7.529-7.529-7.529H45.176v-7.526c0-12.456,10.133-22.588,22.588-22.588h376.471
			c12.456,0,22.588,10.133,22.588,22.588V388.296z"/>
	</g>
</g>
<g>
	<g>
		<path d="M292.52,26.965c-5.584-5.593-13.013-8.673-20.919-8.673c-5.597,0-10.957,1.544-15.594,4.43
			c-4.64-2.888-10.005-4.433-15.608-4.433c-7.904,0-15.332,3.075-20.915,8.658c-11.525,11.525-11.528,30.291-0.004,41.834
			c0.094,0.093,0.191,0.185,0.29,0.274l30.9,30.916c1.411,1.415,3.327,2.21,5.326,2.211c0.001,0,0.002,0,0.004,0
			c1.997,0,3.912-0.793,5.324-2.206l31.191-31.192c5.59-5.59,8.669-13.019,8.669-20.917C301.184,39.966,298.104,32.54,292.52,26.965
			z M281.867,58.138l-25.862,25.863l-25.858-25.864c-0.075-0.075-0.152-0.149-0.23-0.22c-5.439-5.688-5.369-14.739,0.216-20.322
			c2.739-2.74,6.384-4.248,10.266-4.248c3.781,0,7.342,1.432,10.061,4.037c0.726,0.789,1.626,1.43,2.658,1.857
			c2.814,1.166,6.052,0.522,8.205-1.632c2.746-2.746,6.396-4.258,10.277-4.258c3.879,0,7.523,1.51,10.27,4.263
			c2.743,2.739,4.254,6.38,4.254,10.255C286.125,51.745,284.613,55.392,281.867,58.138z"/>
	</g>
</g>
<g>
</g>
<g>
</g>
<g>
</g>
<g>
</g>
<g>
</g>
<g>
</g>
<g>
</g>
<g>
</g>
<g>
</g>
<g>
</g>
<g>
</g>
<g>
</g>
<g>
</g>
<g>
</g>
<g>
</g>
</svg>
